<?xml version="1.0" standalone="no"?>
<!DOCTYPE svg PUBLIC "-//W3C//DTD SVG 20010904//EN"
 "http://www.w3.org/TR/2001/REC-SVG-20010904/DTD/svg10.dtd">
<svg version="1.0" xmlns="http://www.w3.org/2000/svg"
 width="260.000000pt" height="260.000000pt" viewBox="0 0 260.000000 260.000000"
 preserveAspectRatio="xMidYMid meet">
<metadata>
Created by potrace 1.14, written by Peter Selinger 2001-2017
</metadata>
<g transform="translate(0.000000,260.000000) scale(0.100000,-0.100000)"
fill="#000000" stroke="none">
<path d="M1012 2195 c-296 -64 -535 -281 -632 -573 -29 -85 -33 -114 -37 -232
-6 -153 6 -226 56 -355 81 -211 267 -396 481 -480 195 -76 444 -74 639 7 225
94 405 291 483 528 25 79 31 116 36 221 3 76 0 153 -7 195 -60 341 -327 619
-663 688 -94 19 -269 20 -356 1z m364 -85 c276 -70 494 -287 564 -565 28 -110
28 -271 0 -380 -91 -353 -389 -586 -750 -586 -340 0 -628 211 -738 539 -24 70
-26 92 -26 237 -1 150 1 165 27 240 91 259 292 448 547 514 104 28 270 28 376
1z"/>
<path d="M1437 1723 c-11 -13 -17 -45 -20 -108 -2 -49 -9 -136 -16 -193 -7
-56 -10 -139 -7 -185 20 -301 21 -308 36 -317 43 -27 231 -23 323 7 62 19 81
53 49 85 -21 21 -22 21 -79 4 -32 -9 -94 -18 -138 -19 l-80 -2 -9 95 c-11 129
-9 360 3 394 6 15 11 71 11 125 0 82 -3 101 -18 114 -24 21 -35 21 -55 0z"/>
<path d="M904 1708 c-45 -49 -95 -131 -120 -196 -23 -61 -25 -77 -21 -182 3
-91 8 -125 26 -164 28 -63 89 -122 179 -175 l70 -41 116 0 c149 0 156 5 156
118 0 70 -3 83 -32 132 -18 30 -52 68 -75 84 -36 25 -54 30 -123 34 -68 4 -84
2 -100 -13 -45 -40 -19 -67 73 -76 41 -4 86 -14 99 -23 34 -22 68 -87 68 -130
l0 -36 -75 0 c-95 0 -128 16 -241 116 -55 50 -72 224 -32 324 13 30 28 61 35
68 6 6 15 21 18 32 3 11 10 20 15 20 5 0 12 9 15 20 6 18 15 20 90 20 46 0 96
-5 111 -10 36 -14 63 -4 70 27 5 18 1 31 -15 46 -19 20 -34 22 -154 25 -128 3
-133 3 -153 -20z"/>
</g>
</svg>
